<svg version="1.2" baseProfile="tiny-ps" xmlns="http://www.w3.org/2000/svg" viewBox="0 0 512 456" width="512" height="456">
	<title>arrow-up-svg</title>
	<style>
		tspan { white-space:pre }
		.shp0 { fill: #c10001 } 
	</style>
	<g id="Layer">
		<g id="Layer">
			<g id="Layer">
				<path id="Layer" class="shp0" d="M248.46 3.12L88.46 163.12C84.29 167.29 84.29 174.04 88.46 178.21C92.63 182.37 99.38 182.37 103.54 178.21L245.33 36.42L245.33 501.33C245.33 507.23 250.1 512 256 512C261.9 512 266.67 507.23 266.67 501.33L266.67 36.42L408.46 178.21C412.63 182.37 419.38 182.37 423.54 178.21C425.62 176.12 426.67 173.39 426.67 170.67C426.67 167.94 425.62 165.21 423.54 163.12L263.54 3.12C259.38 -1.04 252.63 -1.04 248.46 3.12Z" />
			</g>
		</g>
		<g id="Layer">
		</g>
		<g id="Layer">
		</g>
		<g id="Layer">
		</g>
		<g id="Layer">
		</g>
		<g id="Layer">
		</g>
		<g id="Layer">
		</g>
		<g id="Layer">
		</g>
		<g id="Layer">
		</g>
		<g id="Layer">
		</g>
		<g id="Layer">
		</g>
		<g id="Layer">
		</g>
		<g id="Layer">
		</g>
		<g id="Layer">
		</g>
		<g id="Layer">
		</g>
		<g id="Layer">
		</g>
	</g>
</svg>